<?xml version="1.0" encoding="UTF-8"?>
<svg version="1.1" xmlns="http://www.w3.org/2000/svg" width="1920" height="1260">
<path d="M0 0 C58.0730668 -0.02296769 116.14613327 -0.04055148 174.21920372 -0.05106533 C181.0997491 -0.05231238 187.98029447 -0.05360898 194.86083984 -0.05493164 C195.88774346 -0.05512778 195.88774346 -0.05512778 196.93539259 -0.05532788 C219.02170006 -0.05956949 241.10800492 -0.0670658 263.19431081 -0.07629722 C286.58910857 -0.08605751 309.98390402 -0.09200895 333.37870395 -0.09408849 C347.3544513 -0.09544989 361.33019116 -0.0997244 375.3059362 -0.10791647 C384.93375166 -0.11326704 394.56156335 -0.11478576 404.18938018 -0.11350138 C409.71596117 -0.11287075 415.24252923 -0.11372625 420.76910782 -0.11920547 C445.5859845 -0.14260846 470.37588553 0.1123611 495.18584816 0.70669154 C507.39743357 0.99858534 519.60168915 1.14435007 531.81689453 1.12939453 C533.82935619 1.13076262 535.84181759 1.13255012 537.85427856 1.13470459 C543.1737669 1.13913573 548.4932351 1.13754433 553.81272364 1.1343255 C558.39126043 1.13223901 562.96979422 1.13353341 567.54833114 1.13475883 C578.48616289 1.13768432 589.42398579 1.13577269 600.36181641 1.13037109 C611.11224072 1.12511945 621.86264872 1.12647657 632.61307209 1.13198072 C675.05013546 1.15255 717.48783235 1.17120395 759.92337036 0.77294922 C761.0750054 0.76215402 762.22664043 0.75135883 763.4131735 0.74023651 C768.16280811 0.69547688 772.91243892 0.65033105 777.66206664 0.60484593 C826.69499164 0.13733401 875.72564799 -0.10500657 924.76074219 -0.12939453 C925.49227526 -0.12976425 926.22380833 -0.13013397 926.97750907 -0.13051489 C946.05646018 -0.13986636 965.13540761 -0.13935919 984.21436004 -0.13529958 C995.54746084 -0.13293657 1006.88056022 -0.13272289 1018.21366119 -0.13381577 C1019.03552495 -0.13389215 1019.8573887 -0.13396854 1020.70415741 -0.13404724 C1024.04425084 -0.13435882 1027.38434427 -0.13467725 1030.7244377 -0.135007 C1061.61133061 -0.13801967 1092.49822055 -0.13536404 1123.385113 -0.1299101 C1150.63467326 -0.12513515 1177.88422884 -0.12562314 1205.13378906 -0.13037109 C1236.0995164 -0.13574919 1267.06524117 -0.13783904 1298.0309689 -0.13475883 C1301.33942493 -0.13443829 1304.64788095 -0.13412545 1307.95633698 -0.13381577 C1309.17736779 -0.13369715 1309.17736779 -0.13369715 1310.42306588 -0.13357614 C1322.56761542 -0.13245168 1334.71216307 -0.13374343 1346.85671234 -0.13629532 C1360.64385163 -0.13917879 1374.4309856 -0.13838725 1388.21812424 -0.13301457 C1395.21615628 -0.13037563 1402.21417969 -0.12918773 1409.21221161 -0.13266373 C1436.98921893 -0.14498093 1464.74848189 -0.03989483 1492.51790452 0.66111553 C1506.75128302 1.01735297 1520.9335873 0.97653206 1535.16946983 0.65502548 C1542.3867186 0.49622421 1549.60466261 0.37970301 1556.82275391 0.26660156 C1557.60517704 0.25421912 1558.38760017 0.24183668 1559.1937331 0.22907901 C1581.79831918 -0.12093277 1604.40489231 -0.12216845 1627.01171875 -0.1328125 C1628.10013266 -0.1333258 1629.18854657 -0.13383909 1630.30994272 -0.13436794 C1643.69562703 -0.13978543 1657.08130027 -0.13569731 1670.46698296 -0.12856746 C1679.63826914 -0.12420635 1688.8095417 -0.12735027 1697.98082703 -0.1321975 C1706.99231814 -0.13676327 1716.00380343 -0.13736446 1725.01529533 -0.13475883 C1730.32701522 -0.13322407 1735.63872592 -0.13292457 1740.95044518 -0.13629532 C1780.64854644 -0.15817573 1780.64854644 -0.15817573 1799.89949036 0.77676392 C1816.03737087 1.55231182 1832.25072977 0.89958476 1848.39331055 0.57247925 C1871.26533482 0.11284801 1894.12377494 -0.15025815 1917 0 C1917.0780955 13.67346088 1916.96497 27.34129668 1916.78367233 41.01334381 C1916.7455917 43.88948115 1916.70855661 46.76563033 1916.67178345 49.64178467 C1916.46246993 65.94775808 1916.46246993 65.94775808 1916.35180664 73.59277344 C1916.28041266 78.54063307 1916.21669108 83.48854772 1916.15730476 88.4365654 C1916.13402432 90.27046603 1916.10828252 92.10433795 1916.07946587 93.93815994 C1915.90093809 105.39251627 1916.05877588 116.81617824 1916.42176683 128.26468475 C1917.0703761 149.19607146 1917.14463555 170.11594984 1917.13072467 191.05574298 C1917.12841456 196.22767428 1917.13197783 201.39960256 1917.13470459 206.5715332 C1917.13910616 216.65885105 1917.13821006 226.74616136 1917.13529195 236.83347948 C1917.13301081 245.06946153 1917.13273699 253.30544152 1917.13381577 261.5414238 C1917.13404561 263.31650903 1917.13404561 263.31650903 1917.13428011 265.12745457 C1917.13459993 267.53381996 1917.13492415 269.94018536 1917.1352527 272.34655075 C1917.13809234 294.82400188 1917.13484686 317.3014489 1917.12945233 339.77889936 C1917.12500784 358.88433992 1917.12574364 377.98977439 1917.13037109 397.09521484 C1917.13578249 419.44674319 1917.13779483 441.79826793 1917.13475883 464.14979684 C1917.13444041 466.5577236 1917.13412603 468.96565036 1917.13381577 471.37357712 C1917.13366149 472.55726124 1917.13350721 473.74094536 1917.13334826 474.9604987 C1917.13250088 483.12557941 1917.1339275 491.29065772 1917.13629532 499.45573807 C1917.14766836 542.62686677 1917.12838622 585.79445524 1916.55419922 628.96240234 C1916.54438991 629.71934868 1916.53458061 630.47629502 1916.52447405 631.25617912 C1916.30474339 648.18606574 1915.96009223 665.10640155 1915.3391341 682.02674901 C1914.9533707 692.58284959 1914.84370539 703.12526366 1914.875 713.6875 C1914.87682785 715.07781433 1914.87682785 715.07781433 1914.87869263 716.49621582 C1914.90073956 731.08419537 1915.10453424 745.66593871 1915.4375 760.25 C1915.46683624 761.56827286 1915.46683624 761.56827286 1915.49676514 762.91317749 C1915.757769 774.29393863 1916.25268108 785.64075244 1917 797 C1915.71367676 797.03758423 1915.71367676 797.03758423 1914.40136719 797.07592773 C1911.2106563 797.17123412 1908.02009781 797.27045751 1904.82958984 797.37231445 C1903.45040622 797.4155455 1902.07117315 797.45722866 1900.69189453 797.49731445 C1898.70593062 797.55530403 1896.72014731 797.61937723 1894.734375 797.68359375 C1892.94338379 797.73858032 1892.94338379 797.73858032 1891.11621094 797.79467773 C1888.20250257 797.87230846 1888.20250257 797.87230846 1886.28863525 798.50474548 C1882.96070616 799.22490039 1879.65384468 799.13882345 1876.265625 799.12939453 C1875.49118042 799.13114685 1874.71673584 799.13289917 1873.91882324 799.13470459 C1871.36252594 799.13910066 1868.80629799 799.136193 1866.25 799.1328125 C1864.47167955 799.13348618 1862.69335919 799.13445675 1860.91503906 799.13571167 C1857.1894442 799.1371856 1853.46387332 799.13504385 1849.73828125 799.13037109 C1844.96329845 799.12467399 1840.18837185 799.12795462 1835.41339111 799.13394356 C1831.74169491 799.13755737 1828.07001203 799.1364068 1824.39831543 799.13381577 C1822.63765455 799.13314877 1820.87699247 799.13396698 1819.11633301 799.13629532 C1816.65564775 799.13883526 1814.19505348 799.13496226 1811.734375 799.12939453 C1811.0069812 799.13141876 1810.2795874 799.13344299 1809.53015137 799.13552856 C1806.19350537 799.12154514 1803.19838609 798.97024424 1800 798 C1790.40206396 796.88460141 1780.71240293 796.87033833 1771.0625 796.8125 C1769.90161865 796.79952881 1768.7407373 796.78655762 1767.54467773 796.77319336 C1761.28465962 796.76641991 1756.01003334 797.30107437 1750 799 C1747 799.125 1747 799.125 1745 799 C1745.2577051 797.2688281 1745.53179489 795.54009159 1745.8125 793.8125 C1745.96332031 792.84957031 1746.11414062 791.88664063 1746.26953125 790.89453125 C1747.05920887 787.76538089 1748.22943377 785.683851 1750 783 C1759.67430105 767.88060054 1763.08604283 747.51937385 1759.46630859 730.00927734 C1758.4321919 725.55337138 1757.2146631 721.17374081 1755.8046875 716.8203125 C1755 714 1755 714 1755 710 C1754.34 710 1753.68 710 1753 710 C1751.95531036 708.30961298 1750.99184776 706.56894455 1750.0625 704.8125 C1739.95500612 687.05099105 1723.9521569 672.78192403 1704.25 666.625 C1701.8443711 666.03624697 1699.42635422 665.49647332 1697 665 C1696.35144043 664.85771973 1695.70288086 664.71543945 1695.03466797 664.56884766 C1673.88161623 660.16597293 1646.76814439 666.84975604 1628.25390625 677.69921875 C1624.84088748 679.66967522 1622.46295575 680.5959828 1618.4375 680.3125 C1617.59058594 680.26738281 1616.74367188 680.22226562 1615.87109375 680.17578125 C1614.94490234 680.08876953 1614.94490234 680.08876953 1614 680 C1611.56456597 674.31170254 1611.74320452 668.98324214 1611.8046875 662.9140625 C1611.8075174 661.85714203 1611.81034729 660.80022156 1611.81326294 659.71127319 C1611.8244215 656.34906499 1611.84951841 652.98712714 1611.875 649.625 C1611.88503538 647.33984761 1611.89416025 645.05469102 1611.90234375 642.76953125 C1611.92434668 637.17959589 1611.95778127 631.58981727 1612 626 C1611.37254883 625.86118408 1610.74509766 625.72236816 1610.09863281 625.5793457 C1607.63295374 624.89867371 1606.61745267 623.91096683 1604.75 622.1875 C1580.70067847 603.87672332 1525.95977701 609.20714742 1496.75 607.875 C1495.93019653 607.83647919 1495.11039307 607.79795837 1494.26574707 607.75827026 C1456.48778971 606.01576032 1418.68431094 605.87426235 1380.875 606 C1372.58073509 606.02741159 1364.28648953 606.05010475 1355.9921875 606.0625 C1354.98337587 606.06426994 1353.97456425 606.06603989 1352.93518257 606.06786346 C1340.70928131 606.08340566 1328.51729833 605.9174621 1316.30078125 605.453125 C1294.17327947 604.64914296 1272.04370747 605.23651183 1249.91275787 605.67853928 C1246.26989777 605.7508456 1242.6269939 605.82043234 1238.98406982 605.88943481 C1186.68642728 606.88773028 1134.24282399 607.93843817 1082.12011719 612.63818359 C1078.60199841 612.95355281 1075.08181806 613.22462627 1071.55923462 613.48477173 C1068.20421551 613.73832707 1064.8525047 614.02764943 1061.5 614.3125 C1060.3351709 614.39371094 1059.1703418 614.47492187 1057.97021484 614.55859375 C1050.83200735 615.22749921 1046.07251294 616.80005639 1041 622 C1037.08773401 626.87362439 1036.84729896 630.73847756 1036.4375 636.9375 C1036.35371094 638.14277344 1036.26992187 639.34804688 1036.18359375 640.58984375 C1035.55172501 653.51223811 1036.26447069 666.44080944 1036.79956055 679.35424805 C1036.93646469 682.66248215 1037.06914928 685.97086475 1037.20117188 689.27929688 C1037.41427165 694.58214918 1037.64469886 699.88408207 1037.88104248 705.1859436 C1037.9854006 707.6546369 1038.07121384 710.12289047 1038.14892578 712.5925293 C1038.61664857 725.41113465 1040.53793567 738.01831601 1042.43847656 750.69165039 C1043.00657684 754.48137323 1043.56280787 758.27270106 1044.1171875 762.06445312 C1044.47328381 764.47926623 1044.8300301 766.8939836 1045.1875 769.30859375 C1045.35419189 770.43970078 1045.52088379 771.5708078 1045.69262695 772.7361908 C1045.92792114 774.30041527 1045.92792114 774.30041527 1046.16796875 775.89624023 C1046.37329224 777.27041359 1046.37329224 777.27041359 1046.58276367 778.67234802 C1046.9683586 781.14487762 1046.9683586 781.14487762 1048 784 C1048.17032265 786.1415979 1048.26617837 788.28963927 1048.3125 790.4375 C1048.34988281 791.57058594 1048.38726563 792.70367188 1048.42578125 793.87109375 C1047.91210183 797.64593058 1046.95662994 798.69029994 1044 801 C1034.48720523 806.16999716 1022.68987241 807.52194359 1012 808 C1011.00105713 808.06477539 1011.00105713 808.06477539 1009.98193359 808.13085938 C994.24454705 809.0861087 977.3591559 806.71341974 965 796 C964.34 795.34 963.68 794.68 963 794 C960.04166757 793.6593262 960.04166757 793.6593262 956.54296875 793.65625 C955.89185623 793.64244293 955.24074371 793.62863586 954.56990051 793.6144104 C953.17012795 793.58477955 951.77026947 793.55900749 950.37036133 793.53668213 C946.71886215 793.47532012 943.06851464 793.37592982 939.41796875 793.2734375 C938.69358612 793.25320526 937.96920349 793.23297302 937.22286987 793.21212769 C931.13205686 793.02935586 925.06925831 792.67854066 919 792.125 C918.19071045 792.05861328 917.3814209 791.99222656 916.54760742 791.92382812 C911.27240109 791.39916623 906.89654439 790.03651732 902 788 C902 788.66 902 789.32 902 790 C901.43079834 790.19634033 900.86159668 790.39268066 900.27514648 790.5949707 C897.66167031 791.49815537 895.04958428 792.40529812 892.4375 793.3125 C891.54224609 793.62123047 890.64699219 793.92996094 889.72460938 794.24804688 C885.90197274 795.57826841 882.23743445 796.88359987 878.59765625 798.66796875 C867.6126169 802.73517659 854.07671714 801.28906711 842.47802734 801.50268555 C839.29904245 801.56159126 836.12024287 801.62697938 832.94140625 801.69335938 C827.69155496 801.7993402 822.44169104 801.88542257 817.19125366 801.95651245 C815.02847279 801.98598489 812.86573043 802.01840491 810.70303345 802.05349731 C807.47000043 802.10268947 804.23718081 802.13554653 801.00390625 802.1640625 C799.55041779 802.18908592 799.55041779 802.18908592 798.06756592 802.21461487 C788.73311146 802.26265551 778.99403321 800.59710692 770.86987305 795.72167969 C761.08076087 790.20961132 750.31597226 791.42244072 739.4375 791.625 C737.42384517 791.64154659 735.41017093 791.65588434 733.39648438 791.66796875 C724.14333989 791.74471139 714.90143915 791.98020122 705.66015625 792.4609375 C704.90866806 792.49869293 704.15717987 792.53644836 703.38291931 792.5753479 C699.56467683 792.75300481 699.56467683 792.75300481 696 794 C686.4338327 795.61025186 676.74062671 794.79057332 667.09350586 794.40673828 C648.61771945 793.43405779 648.61771945 793.43405779 630.4375 796.0625 C625.36105747 797.36759676 620.33889182 797.08141472 615.12890625 797.0078125 C610.71994391 796.96737307 606.33775736 797.1761508 601.9375 797.4375 C601.23560547 797.47689697 600.53371094 797.51629395 599.81054688 797.55688477 C596.87600741 797.73976493 594.01361362 797.99759795 591.11686707 798.50871277 C588.14338405 798.9773995 585.35945523 799.14579105 582.3527832 799.17700195 C581.26757889 799.18983719 580.18237457 799.20267242 579.06428528 799.21589661 C577.90482895 799.22328354 576.74537262 799.23067047 575.55078125 799.23828125 C574.34238083 799.246353 573.13398041 799.25442474 571.88896179 799.26274109 C569.33459901 799.27654857 566.78021803 799.28728558 564.22583008 799.29516602 C561.62583981 799.3066826 559.02587312 799.32712903 556.42602539 799.35668945 C552.6549484 799.39953988 548.88457204 799.41555985 545.11328125 799.42578125 C543.96394608 799.44328934 542.8146109 799.46079742 541.63044739 799.47883606 C532.89204296 799.45561571 525.35173308 797.90115539 518 793 C515.54698798 793.21059716 513.23083103 793.52329158 510.8125 793.9375 C501.27282132 795.3509478 491.62376804 795.53162913 482.2421875 792.9765625 C476.17797368 791.36570977 469.89875884 791.64227577 463.6640625 791.609375 C457.41435088 791.45978084 452.78202887 790.46692298 447.16943359 787.65771484 C444.98891872 786.75804084 444.98891872 786.75804084 442.8515625 787.79541016 C439.99267663 789.65534461 437.19918274 791.59421714 434.4140625 793.5625 C429.38447704 796.55746351 424.01806207 797.46457433 418.27368164 798.1105957 C417.53428124 798.19488736 416.79488085 798.27917902 416.03307438 798.36602497 C407.5651133 799.25437283 399.1263967 799.27075159 390.62109375 799.23046875 C388.91252172 799.22927114 387.20394902 799.22882501 385.49537659 799.2290802 C381.94487274 799.22753164 378.39447205 799.21936939 374.84399414 799.20581055 C370.34072077 799.18881053 365.8375598 799.18499776 361.33425808 799.18575573 C357.81564808 799.18548112 354.29706162 799.17995397 350.77845955 799.17275429 C349.11982462 799.16961988 347.46118708 799.16761279 345.80254936 799.16686058 C337.79254916 799.15924429 329.82623211 799.05456581 321.83374023 798.49780273 C314.02066322 797.95900629 306.24286322 797.85379741 298.4140625 797.8671875 C296.97789494 797.86651021 295.54172748 797.86553671 294.1055603 797.86428833 C291.12244556 797.86283031 288.13936116 797.86490319 285.15625 797.86962891 C281.38895231 797.87531555 277.62172544 797.87195039 273.8544302 797.86618614 C254.67277977 797.79796338 254.67277977 797.79796338 235.51377869 798.60528564 C224.58891356 799.33125505 213.6320567 799.42613098 202.6875 799.625 C201.48687927 799.64745789 200.28625854 799.66991577 199.04925537 799.6930542 C183.56534396 799.97209225 168.10601175 800.07598768 152.625 799.625 C151.87431244 799.60367004 151.12362488 799.58234009 150.35018921 799.56036377 C138.54671147 799.20690433 138.54671147 799.20690433 132.76464844 798.48632812 C127.4162484 797.86792003 122.10537637 797.85623468 116.7265625 797.8671875 C115.68100189 797.86623077 114.63544128 797.86527405 113.55819702 797.86428833 C111.36480651 797.86361183 109.17141394 797.86542887 106.97802734 797.86962891 C103.61421265 797.87501728 100.25052951 797.86964932 96.88671875 797.86328125 C94.74999971 797.86394149 92.61328074 797.86522153 90.4765625 797.8671875 C89.47033844 797.86516327 88.46411438 797.86313904 87.42739868 797.86105347 C86.49567841 797.86420563 85.56395813 797.86735779 84.60400391 797.87060547 C83.37564316 797.87179886 83.37564316 797.87179886 82.12246704 797.87301636 C79.81008604 797.91941215 79.81008604 797.91941215 77 799 C75.43831219 799.10475813 73.87271343 799.15578381 72.30761719 799.17358398 C71.35522156 799.18707382 70.40282593 799.20056366 69.42156982 799.21446228 C68.39042053 799.22490067 67.35927124 799.23533905 66.296875 799.24609375 C64.09635086 799.27907697 61.89583012 799.31228774 59.6953125 799.34570312 C56.23993669 799.39275982 52.7845699 799.43710279 49.32910156 799.47680664 C28.91422955 799.20105157 28.91422955 799.20105157 9 803 C7.60560336 803.06665376 6.20830125 803.08538199 4.8125 803.0625 C3.554375 803.041875 2.29625 803.02125 1 803 C0.67 803.66 0.34 804.32 0 805 C-0.13195781 782.17772193 -0.2624008 759.35543562 -0.39115143 736.53313923 C-0.45099701 725.93086154 -0.51129623 715.32858683 -0.57275391 704.72631836 C-0.6264632 695.46053332 -0.67922933 686.19474341 -0.73096704 676.92894715 C-0.75826565 672.04539895 -0.78596524 667.16185395 -0.81480408 662.27831459 C-0.93128465 642.49224785 -1.02461649 622.70615302 -1.0453558 602.91972578 C-1.04761791 601.02318351 -1.05078996 599.12664205 -1.05500889 597.23010314 C-1.07997076 585.2089861 -0.90270633 573.20922475 -0.51224422 561.19433558 C-0.43281713 558.72968921 -0.35803165 556.26494086 -0.28498077 553.80009747 C-0.26276978 553.05085811 -0.24055879 552.30161876 -0.21767473 551.52967519 C0.05554069 541.6503697 -0.09750323 531.81309009 -0.4375 521.9375 C-0.47503891 520.84290466 -0.47503891 520.84290466 -0.51333618 519.72619629 C-0.56356649 518.26925425 -0.61386377 516.81231453 -0.66423035 515.3553772 C-0.68866714 514.64642303 -0.71310394 513.93746887 -0.73828125 513.20703125 C-0.76251663 512.5052475 -0.78675201 511.80346375 -0.8117218 511.08041382 C-1.40658009 493.26021681 -1.02516767 475.43869594 -0.64541626 457.61862183 C-0.18901872 435.95036415 0.08407465 414.29444592 0.0625 392.62109375 C0.061805 391.24027637 0.06119117 389.85945896 0.06065369 388.47864151 C0.04322336 350.09466956 -0.25924439 311.71200114 -0.53643799 273.32922363 C-1.09815808 195.46897477 -0.98278209 117.63766931 0 0 Z " fill="#000000" transform="translate(1,0)"/>
<path d="M0 0 C0.77085938 0.32742188 1.54171875 0.65484375 2.3359375 0.9921875 C17.61815605 8.55054108 25.43510003 19.66121097 31.18359375 35.19921875 C35.70263103 50.24259174 31.09980341 66.62225991 24.54296875 80.421875 C22.26588536 84.22662193 19.34138314 87.25007384 16.2890625 90.4453125 C11.86631728 95.38127731 7.23654336 101.35357944 6 108 C4.77023437 108.18175781 4.77023437 108.18175781 3.515625 108.3671875 C2.43796875 108.53476562 1.3603125 108.70234375 0.25 108.875 C-0.81734375 109.03742188 -1.8846875 109.19984375 -2.984375 109.3671875 C-5.93515367 109.83521693 -5.93515367 109.83521693 -8.078125 111.1328125 C-10.85010645 112.38358462 -12.15018322 112.02661561 -15 111 C-17.07659857 109.36058007 -18.92687524 107.76773926 -20.8125 105.9375 C-21.31458984 105.46505859 -21.81667969 104.99261719 -22.33398438 104.50585938 C-23.56422789 103.34591548 -24.78327065 102.17411185 -26 101 C-28.9719385 102.12451727 -31.33440687 103.22293791 -34 105 C-36.51757812 105.31884766 -36.51757812 105.31884766 -39.53125 105.4140625 C-40.64201904 105.45305664 -41.75278809 105.49205078 -42.8972168 105.53222656 C-44.08613525 105.5628418 -45.27505371 105.59345703 -46.5 105.625 C-47.72307861 105.66077148 -48.94615723 105.69654297 -50.20629883 105.73339844 C-52.67205564 105.80137467 -55.13796806 105.86393704 -57.60400391 105.92089844 C-60.45941237 105.98740831 -63.31327851 106.07321838 -66.16796875 106.1640625 C-78.793017 106.46223934 -91.5916998 105.39476887 -104 103 C-105 102 -105 102 -105.01953125 99.40234375 C-104.23126409 86.21002358 -103.16306737 73.8149009 -93.25 64.1953125 C-90.50251718 61.51460878 -88.43164075 58.56845093 -86.2890625 55.3984375 C-85.86367187 54.93695312 -85.43828125 54.47546875 -85 54 C-84.01 54 -83.02 54 -82 54 C-81.92523437 53.46375 -81.85046875 52.9275 -81.7734375 52.375 C-78.89177264 35.19801729 -71.62436907 18.63229987 -58 7.5625 C-54.42889668 5.70255035 -51.9720296 5.68223763 -48 6 C-47.77054688 5.39542969 -47.54109375 4.79085937 -47.3046875 4.16796875 C-45.63303562 1.39022386 -44.03778998 0.68246205 -41.125 -0.6875 C-40.26132813 -1.10386719 -39.39765625 -1.52023437 -38.5078125 -1.94921875 C-26.78645041 -6.86050598 -11.32833474 -4.81853111 0 0 Z " fill="#000000" transform="translate(1704,694)"/>
</svg>
